<svg viewBox="0 0 60 60" fill="none" xmlns="http://www.w3.org/2000/svg">
<g clip-path="url(#clip0_1279_203)">
<path d="M59.9678 26.205L59.9649 23.5907C59.9615 21.1186 57.9257 19.1021 55.4266 19.0957C55.4225 19.0957 55.4186 19.0957 55.4146 19.0957C54.1961 19.0957 53.0536 19.5667 52.1969 20.4224C51.3504 21.2678 50.8851 22.3896 50.8867 23.5807L50.9209 54.0874C50.9213 54.4331 51.0236 54.7711 51.2151 55.059L53.9793 59.215C54.3041 59.7034 54.8513 59.9975 55.4379 59.9992C55.4396 59.9992 55.4412 59.9992 55.443 59.9992C56.0276 59.9992 56.5743 59.7084 56.901 59.2232L59.6993 55.0672C59.895 54.7766 59.9995 54.4339 59.9991 54.0834L59.9678 26.205ZM54.4025 23.5766C54.402 23.3266 54.5011 23.0898 54.6814 22.9098C54.8741 22.7173 55.1345 22.6113 55.4148 22.6113C55.4158 22.6113 55.4167 22.6113 55.4177 22.6113C55.9858 22.6129 56.4486 23.0543 56.4494 23.5951L56.4507 24.7721H54.4038L54.4025 23.5766ZM54.4076 28.2878H56.4545L56.476 47.3889H54.4291L54.4076 28.2878ZM55.4519 55.0809L54.436 53.5535L54.4331 50.9045H56.48L56.4829 53.5499L55.4519 55.0809Z" fill="#F50E30"/>
<path d="M41.5698 0H5.27417C2.3664 0 0.000732422 2.36566 0.000732422 5.27344V54.7266C0.000732422 57.6343 2.3664 60 5.27417 60H41.5698C44.4776 60 46.8433 57.6343 46.8433 54.7266V5.27344C46.8433 2.36566 44.4776 0 41.5698 0ZM43.3276 54.7266C43.3276 55.6958 42.5391 56.4844 41.5698 56.4844H5.27417C4.30491 56.4844 3.51636 55.6958 3.51636 54.7266V5.27344C3.51636 4.30418 4.30491 3.51562 5.27417 3.51562H41.5698C42.5391 3.51562 43.3276 4.30418 43.3276 5.27344V54.7266Z" fill="#F50E30"/>
<path d="M36.8577 9.92383H9.98975C9.01896 9.92383 8.23193 10.7109 8.23193 11.6816C8.23193 12.6524 9.01896 13.4395 9.98975 13.4395H36.8577C37.8285 13.4395 38.6155 12.6524 38.6155 11.6816C38.6155 10.7109 37.8285 9.92383 36.8577 9.92383Z" fill="#F50E30"/>
<path d="M36.8577 17.5059H9.98975C9.01896 17.5059 8.23193 18.2929 8.23193 19.2637C8.23193 20.2345 9.01896 21.0215 9.98975 21.0215H36.8577C37.8285 21.0215 38.6155 20.2345 38.6155 19.2637C38.6155 18.2929 37.8285 17.5059 36.8577 17.5059Z" fill="#F50E30"/>
<path d="M36.8577 25.0879H9.98975C9.01896 25.0879 8.23193 25.8749 8.23193 26.8457C8.23193 27.8165 9.01896 28.6035 9.98975 28.6035H36.8577C37.8285 28.6035 38.6155 27.8165 38.6155 26.8457C38.6155 25.8749 37.8285 25.0879 36.8577 25.0879Z" fill="#F50E30"/>
<path d="M26.5646 32.6699H9.98975C9.01896 32.6699 8.23193 33.457 8.23193 34.4277C8.23193 35.3985 9.01896 36.1855 9.98975 36.1855H26.5646C27.5354 36.1855 28.3224 35.3985 28.3224 34.4277C28.3224 33.457 27.5354 32.6699 26.5646 32.6699Z" fill="#F50E30"/>
<path d="M32.585 38.1543C28.2959 38.1543 24.8066 41.5927 24.8066 45.8189C24.8066 50.0452 28.296 53.4835 32.585 53.4835C36.8739 53.4835 40.3633 50.0452 40.3633 45.8189C40.3633 41.5927 36.874 38.1543 32.585 38.1543ZM32.585 49.968C30.2344 49.968 28.3223 48.1068 28.3223 45.8191C28.3223 43.5313 30.2345 41.67 32.585 41.67C34.9354 41.67 36.8477 43.5313 36.8477 45.8191C36.8477 48.1068 34.9355 49.968 32.585 49.968Z" fill="#F50E30"/>
</g>
<defs>
<clipPath id="clip0_1279_203">
<rect width="60" height="60" fill="white"/>
</clipPath>
</defs>
</svg>
