<svg viewBox="0 0 60 60" fill="none" xmlns="http://www.w3.org/2000/svg">
<path d="M45.3131 46.4114C46.5996 44.4678 47.1183 42.1157 46.7688 39.8113C46.4192 37.5069 45.2263 35.4145 43.4214 33.9398C41.6165 32.4651 39.3282 31.7133 37.0003 31.8302C34.6725 31.9471 32.4711 32.9244 30.823 34.5725C29.1749 36.2206 28.1976 38.422 28.0807 40.7499C27.9638 43.0777 28.7156 45.366 30.1903 47.1709C31.6649 48.9758 33.7574 50.1687 36.0618 50.5183C38.3662 50.8678 40.7183 50.3491 42.6619 49.0626L45.5494 51.9501C45.903 52.2917 46.3766 52.4807 46.8683 52.4764C47.3599 52.4721 47.8302 52.2749 48.1778 51.9273C48.5254 51.5797 48.7226 51.1094 48.7269 50.6178C48.7312 50.1262 48.5422 49.6525 48.2006 49.2989L45.3131 46.4114ZM31.875 41.2495C31.875 40.137 32.2049 39.0495 32.823 38.1244C33.4411 37.1994 34.3196 36.4784 35.3474 36.0527C36.3752 35.627 37.5063 35.5156 38.5974 35.7326C39.6885 35.9496 40.6908 36.4854 41.4775 37.272C42.2642 38.0587 42.7999 39.061 43.0169 40.1521C43.234 41.2433 43.1226 42.3743 42.6968 43.4021C42.2711 44.4299 41.5501 45.3085 40.6251 45.9265C39.7001 46.5446 38.6125 46.8745 37.5 46.8745C36.0082 46.8745 34.5774 46.2819 33.5225 45.227C32.4676 44.1721 31.875 42.7414 31.875 41.2495Z" fill="#F50E30"/>
<path d="M43.125 3.75H16.875C15.3832 3.75 13.9524 4.34263 12.8975 5.39752C11.8426 6.45242 11.25 7.88316 11.25 9.375V50.625C11.25 52.1168 11.8426 53.5476 12.8975 54.6025C13.9524 55.6574 15.3832 56.25 16.875 56.25H30C30.4973 56.25 30.9742 56.0525 31.3258 55.7008C31.6775 55.3492 31.875 54.8723 31.875 54.375C31.875 53.8777 31.6775 53.4008 31.3258 53.0492C30.9742 52.6975 30.4973 52.5 30 52.5H16.875C16.3777 52.5 15.9008 52.3025 15.5492 51.9508C15.1975 51.5992 15 51.1223 15 50.625V9.375C15 8.87772 15.1975 8.40081 15.5492 8.04918C15.9008 7.69754 16.3777 7.5 16.875 7.5H43.125C43.6223 7.5 44.0992 7.69754 44.4508 8.04918C44.8025 8.40081 45 8.87772 45 9.375V30C45 30.4973 45.1975 30.9742 45.5492 31.3258C45.9008 31.6775 46.3777 31.875 46.875 31.875C47.3723 31.875 47.8492 31.6775 48.2008 31.3258C48.5525 30.9742 48.75 30.4973 48.75 30V9.375C48.75 7.88316 48.1574 6.45242 47.1025 5.39752C46.0476 4.34263 44.6168 3.75 43.125 3.75Z" fill="#F50E30"/>
<path d="M22.5 16.875H37.5C37.9973 16.875 38.4742 16.6775 38.8258 16.3258C39.1775 15.9742 39.375 15.4973 39.375 15C39.375 14.5027 39.1775 14.0258 38.8258 13.6742C38.4742 13.3225 37.9973 13.125 37.5 13.125H22.5C22.0027 13.125 21.5258 13.3225 21.1742 13.6742C20.8225 14.0258 20.625 14.5027 20.625 15C20.625 15.4973 20.8225 15.9742 21.1742 16.3258C21.5258 16.6775 22.0027 16.875 22.5 16.875Z" fill="#F50E30"/>
<path d="M39.375 24.375C39.375 23.8777 39.1775 23.4008 38.8258 23.0492C38.4742 22.6975 37.9973 22.5 37.5 22.5H22.5C22.0027 22.5 21.5258 22.6975 21.1742 23.0492C20.8225 23.4008 20.625 23.8777 20.625 24.375C20.625 24.8723 20.8225 25.3492 21.1742 25.7008C21.5258 26.0525 22.0027 26.25 22.5 26.25H37.5C37.9973 26.25 38.4742 26.0525 38.8258 25.7008C39.1775 25.3492 39.375 24.8723 39.375 24.375Z" fill="#F50E30"/>
<path d="M22.5 31.875C22.0027 31.875 21.5258 32.0725 21.1742 32.4242C20.8225 32.7758 20.625 33.2527 20.625 33.75C20.625 34.2473 20.8225 34.7242 21.1742 35.0758C21.5258 35.4275 22.0027 35.625 22.5 35.625H24.375C24.8723 35.625 25.3492 35.4275 25.7008 35.0758C26.0525 34.7242 26.25 34.2473 26.25 33.75C26.25 33.2527 26.0525 32.7758 25.7008 32.4242C25.3492 32.0725 24.8723 31.875 24.375 31.875H22.5Z" fill="#F50E30"/>
</svg>
