<svg viewBox="0 0 60 60" fill="none" xmlns="http://www.w3.org/2000/svg">
<path d="M13.9459 20.6347C14.074 21.1364 14.4822 21.5625 15 21.5625C15.5178 21.5625 15.926 21.1364 16.0541 20.6347C16.2193 19.9878 16.5558 19.3909 17.0359 18.9109C17.5159 18.4308 18.1128 18.0943 18.7597 17.9291C19.2614 17.801 19.6875 17.3928 19.6875 16.875C19.6875 16.3572 19.2614 15.949 18.7597 15.8209C18.1128 15.6557 17.5159 15.3192 17.0359 14.8392C16.5558 14.3591 16.2193 13.7622 16.0541 13.1153C15.926 12.6136 15.5178 12.1875 15 12.1875C14.4822 12.1875 14.074 12.6136 13.9459 13.1153C13.7807 13.7622 13.4442 14.3591 12.9642 14.8392C12.4841 15.3192 11.8872 15.6557 11.2403 15.8209C10.7386 15.949 10.3125 16.3572 10.3125 16.875C10.3125 17.3928 10.7386 17.801 11.2403 17.9291C11.8872 18.0943 12.4841 18.4308 12.9642 18.9109C13.4442 19.3909 13.7807 19.9878 13.9459 20.6347ZM14.2869 16.1619C14.6657 15.7832 15.3343 15.7832 15.7131 16.1619C16.0918 16.5407 16.0918 17.2093 15.7131 17.5881C15.3343 17.9668 14.6657 17.9668 14.2869 17.5881C13.9082 17.2093 13.9082 16.5407 14.2869 16.1619Z" fill="#F50E30"/>
<path d="M43.9459 20.6347C44.074 21.1364 44.4822 21.5625 45 21.5625C45.5178 21.5625 45.926 21.1364 46.0541 20.6347C46.2193 19.9878 46.5558 19.3909 47.0359 18.9109C47.5159 18.4308 48.1128 18.0943 48.7597 17.9291C49.2614 17.801 49.6875 17.3928 49.6875 16.875C49.6875 16.3572 49.2614 15.949 48.7597 15.8209C48.1128 15.6557 47.5159 15.3192 47.0359 14.8392C46.5558 14.3591 46.2193 13.7622 46.0541 13.1153C45.926 12.6136 45.5178 12.1875 45 12.1875C44.4822 12.1875 44.074 12.6136 43.9459 13.1153C43.7807 13.7622 43.4442 14.3591 42.9641 14.8392C42.4841 15.3192 41.8872 15.6557 41.2403 15.8209C40.7386 15.949 40.3125 16.3572 40.3125 16.875C40.3125 17.3928 40.7386 17.801 41.2403 17.9291C41.8872 18.0943 42.4841 18.4308 42.9641 18.9109C43.4442 19.3909 43.7807 19.9878 43.9459 20.6347ZM44.2869 16.1619C44.6657 15.7832 45.3343 15.7832 45.7131 16.1619C46.0918 16.5407 46.0918 17.2093 45.7131 17.5881C45.3343 17.9668 44.6657 17.9668 44.2869 17.5881C43.9082 17.2093 43.9082 16.5407 44.2869 16.1619Z" fill="#F50E30"/>
<path d="M28.9459 12.1972C29.074 12.6989 29.4822 13.125 30 13.125C30.5178 13.125 30.926 12.6989 31.0541 12.1972C31.2193 11.5503 31.5558 10.9534 32.0359 10.4733C32.5159 9.99325 33.1128 9.65678 33.7597 9.49157C34.2614 9.36346 34.6875 8.95527 34.6875 8.4375C34.6875 7.91973 34.2614 7.51154 33.7597 7.38343C33.1128 7.21822 32.5159 6.88175 32.0359 6.40165C31.5558 5.92155 31.2193 5.32468 31.0541 4.67779C30.926 4.17613 30.5178 3.75 30 3.75C29.4822 3.75 29.074 4.17613 28.9459 4.67779C28.7807 5.32468 28.4442 5.92155 27.9641 6.40165C27.4841 6.88175 26.8872 7.21822 26.2403 7.38343C25.7386 7.51154 25.3125 7.91973 25.3125 8.4375C25.3125 8.95527 25.7386 9.36346 26.2403 9.49157C26.8872 9.65678 27.4841 9.99325 27.9641 10.4733C28.4442 10.9534 28.7807 11.5503 28.9459 12.1972ZM29.2869 7.72441C29.6657 7.34565 30.3343 7.34565 30.7131 7.72441C31.0918 8.10317 31.0918 8.77183 30.7131 9.15059C30.3343 9.52935 29.6657 9.52935 29.2869 9.15059C28.9082 8.77184 28.9082 8.10316 29.2869 7.72441Z" fill="#F50E30"/>
<path d="M13.6378 41.4028L7.07529 37.1129C6.93803 37.0227 6.7795 36.9702 6.61557 36.9606C6.45164 36.951 6.28806 36.9846 6.1412 37.0581C5.99435 37.1315 5.86936 37.2423 5.77877 37.3793C5.68817 37.5162 5.63514 37.6746 5.62498 37.8385L5.36342 42.0132C5.35274 42.1831 5.38855 42.3527 5.46701 42.5039C5.54546 42.655 5.6636 42.7819 5.80873 42.871L9.55873 45.1716C9.71517 45.2673 9.89625 45.3151 10.0796 45.3089C10.2629 45.3027 10.4403 45.2429 10.59 45.1369L13.664 42.9516C13.7885 42.8632 13.8894 42.7457 13.9581 42.6093C14.0268 42.473 14.0612 42.3219 14.0582 42.1693C14.0553 42.0167 14.0151 41.8671 13.9412 41.7335C13.8672 41.5999 13.7618 41.4864 13.634 41.4028H13.6378ZM10.0125 43.2488L7.27123 41.5679L7.39779 39.5625L11.4609 42.2185L10.0125 43.2488Z" fill="#F50E30"/>
<path d="M45.9374 42.1696C45.9344 42.3223 45.9688 42.4735 46.0376 42.6099C46.1064 42.7464 46.2075 42.8639 46.3321 42.9524L49.4062 45.1377C49.5558 45.2437 49.7333 45.3035 49.9166 45.3097C50.0999 45.3158 50.281 45.2681 50.4374 45.1724L54.1874 42.8717C54.3326 42.7827 54.4507 42.6558 54.5292 42.5046C54.6076 42.3535 54.6434 42.1839 54.6327 42.0139L54.3749 37.8392C54.3646 37.6756 54.3115 37.5176 54.221 37.3809C54.1305 37.2442 54.0058 37.1337 53.8592 37.0602C53.7127 36.9868 53.5494 36.9531 53.3857 36.9625C53.2221 36.9718 53.0637 37.024 52.9265 37.1136L46.364 41.4036C46.2359 41.4869 46.13 41.6002 46.0557 41.7337C45.9813 41.8672 45.9407 42.0168 45.9374 42.1696ZM52.6021 39.5633L52.7287 41.5677L49.9874 43.2496L48.539 42.2183L52.6021 39.5633Z" fill="#F50E30"/>
<mask id="path-6-outside-1_1279_178" maskUnits="userSpaceOnUse" x="-0.0603027" y="21.5" width="60" height="36" fill="black">
<rect fill="white" x="-0.0603027" y="21.5" width="60" height="36"/>
<path d="M57.1874 32.8125C57.3108 32.8125 57.4329 32.7881 57.5468 32.7408C57.6607 32.6935 57.7641 32.6242 57.8512 32.5369L58.7887 31.5994C58.9273 31.4602 59.0188 31.281 59.0501 31.087C59.0814 30.893 59.0509 30.6942 58.9631 30.5184L58.0256 28.6434C57.9478 28.4877 57.8281 28.3568 57.6801 28.2652C57.5321 28.1736 57.3615 28.1251 57.1874 28.125H53.4374C53.1888 28.1251 52.9504 28.2239 52.7746 28.3997L51.8371 29.3372C51.6979 29.4762 51.606 29.6555 51.5744 29.8497C51.5428 30.0438 51.573 30.243 51.6609 30.4191L52.3893 31.875L52.0312 32.5913L50.6934 29.9156C49.7428 28.0139 48.3114 26.394 46.5411 25.2166C44.7709 24.0392 42.7234 23.3454 40.6021 23.2041L30.0618 22.5C30.0206 22.5 29.9793 22.5 29.9381 22.5L19.3977 23.2022C16.912 23.3649 14.5365 24.2882 12.5934 25.8469C11.2185 26.9516 10.0975 28.3393 9.3065 29.9156L7.96868 32.5913L7.61056 31.875L8.34368 30.4191C8.43153 30.243 8.46178 30.0438 8.43015 29.8497C8.39852 29.6555 8.30661 29.4762 8.16743 29.3372L7.22993 28.3997C7.14234 28.3121 7.03825 28.2427 6.92368 28.1955C6.80911 28.1484 6.68633 28.1244 6.56243 28.125H2.81243C2.63838 28.1251 2.46778 28.1736 2.31975 28.2652C2.17173 28.3568 2.05211 28.4877 1.97431 28.6434L1.03681 30.5184C0.950249 30.6935 0.920525 30.8912 0.951787 31.084C0.983049 31.2768 1.07374 31.455 1.21118 31.5938L2.14868 32.5313C2.23529 32.6196 2.33853 32.69 2.45245 32.7382C2.56637 32.7865 2.68871 32.8117 2.81243 32.8125H5.98306L6.42931 33.7059L4.26837 34.7812C4.12279 34.8549 3.99852 34.9646 3.90743 35.1L2.03243 37.9125C1.92912 38.068 1.8743 38.2508 1.87493 38.4375V50.3869C1.87624 50.7848 1.96026 51.1782 2.12165 51.5419C2.28303 51.9057 2.51827 52.232 2.81243 52.5V54.3178C2.80568 55.0711 3.09801 55.7962 3.62528 56.3342C4.15255 56.8722 4.87169 57.1791 5.62493 57.1875H9.37493C10.0036 57.1824 10.6125 56.9675 11.1051 56.5769C11.5976 56.1862 11.9456 55.6422 12.0937 55.0313L14.9062 55.3125C14.9381 55.3125 14.969 55.3172 14.9999 55.3172C15.127 55.3173 15.2527 55.2915 15.3693 55.2413L18.4171 53.9353L18.8484 54.7988C18.9269 54.9537 19.0469 55.0838 19.1951 55.1745C19.3433 55.2653 19.5137 55.313 19.6874 55.3125H40.3124C40.4874 55.3135 40.6592 55.2654 40.8083 55.1738C40.9575 55.0822 41.078 54.9506 41.1562 54.7941L41.5874 53.9306L44.6352 55.2366C44.7505 55.2862 44.8745 55.312 44.9999 55.3125C45.0309 55.3125 45.0618 55.3125 45.0937 55.3078L47.8931 55.0266C48.0328 55.6448 48.3801 56.1965 48.8772 56.5897C49.3743 56.9829 49.9911 57.1939 50.6249 57.1875H54.3749C55.1282 57.1791 55.8473 56.8722 56.3746 56.3342C56.9019 55.7962 57.1942 55.0711 57.1874 54.3178V52.5C57.4817 52.2321 57.7171 51.9058 57.8785 51.5421C58.0399 51.1783 58.1238 50.7849 58.1249 50.3869V38.4375C58.1246 38.2524 58.0699 38.0714 57.9674 37.9172L56.0924 35.1047C56.0013 34.9693 55.8771 34.8596 55.7315 34.7859L53.5752 33.7059L54.0168 32.8125H57.1874ZM13.7662 27.3131C15.4097 25.994 17.4195 25.2127 19.5224 25.0753L29.9999 24.375L40.4774 25.0734C42.2723 25.1936 44.0045 25.781 45.5023 26.7772C47.0001 27.7735 48.2115 29.144 49.0162 30.7528L50.0446 32.8125H9.95431L10.9856 30.75C11.6511 29.4155 12.6001 28.2426 13.7662 27.3131ZM49.2984 34.6875L43.5712 40.4156L37.3687 42.1875H33.9712L32.294 41.3438C32.1634 41.2805 32.02 41.2484 31.8749 41.25H28.1249C27.9799 41.2484 27.8364 41.2805 27.7059 41.3438L26.0287 42.1875H22.6312L16.4437 40.4184L11.0099 34.6875H49.2984ZM5.98587 30.9375H3.2015L3.014 30.75L3.389 30H6.17431L6.36181 30.1875L5.98587 30.9375ZM4.87493 50.0625C4.75323 50.2248 4.68743 50.4222 4.68743 50.625V51.5709L4.17743 51.2213C4.0439 51.1272 3.93523 51.0021 3.86076 50.8568C3.78629 50.7115 3.74825 50.5502 3.74993 50.3869V44.4506L6.79681 47.4975L4.87493 50.0625ZM9.37493 55.3125H5.62493C5.36888 55.3044 5.12646 55.1952 4.95076 55.0088C4.77505 54.8223 4.68036 54.5739 4.68743 54.3178V53.8491L4.87493 53.9756C4.94902 54.0856 5.04603 54.1783 5.15931 54.2472C5.27259 54.3161 5.39946 54.3597 5.53118 54.375L10.1568 54.8381C10.0796 54.9789 9.96672 55.0969 9.82946 55.1801C9.69221 55.2634 9.53544 55.3091 9.37493 55.3125ZM38.8068 50.7009L38.0681 52.4241L39.8568 53.1909L39.7331 53.4375H20.2668L20.1431 53.1909L21.9318 52.4241L21.1931 50.7009L14.8527 53.4197L6.56243 52.5938V50.9372L8.75243 48.0159L19.5449 49.6763C19.5921 49.6838 19.6397 49.6875 19.6874 49.6875H40.3124C40.3598 49.6875 40.4072 49.6837 40.454 49.6763L51.2465 48.0169L53.4374 50.9372V52.5938L45.1471 53.4225L38.8068 50.7009ZM55.1249 50.0625L53.2021 47.4984L56.2499 44.4506V50.3869C56.2516 50.5503 56.2134 50.7116 56.1388 50.857C56.0642 51.0024 55.9553 51.1274 55.8215 51.2213L55.3124 51.5709V50.625C55.3124 50.4222 55.2466 50.2248 55.1249 50.0625ZM54.3749 55.3125H50.6249C50.464 55.3086 50.3069 55.2622 50.1696 55.1781C50.0323 55.094 49.9196 54.9751 49.8431 54.8334L54.4687 54.375C54.6003 54.3599 54.7272 54.3165 54.8405 54.2477C54.9538 54.1789 55.0508 54.0864 55.1249 53.9766L55.3124 53.85V54.3188C55.3193 54.5747 55.2245 54.8229 55.0488 55.0091C54.8731 55.1953 54.6308 55.3044 54.3749 55.3125ZM56.2499 38.7188V41.7966L52.0537 45.9928L40.2402 47.8125H19.7596L7.94712 45.9956L3.74993 41.7994V38.7188L5.32962 36.3488L8.50118 34.7634L15.2568 41.8884C15.3727 42.0098 15.5185 42.0984 15.6796 42.1453L22.2421 44.0203C22.3257 44.0461 22.4125 44.0603 22.4999 44.0625H26.2499C26.395 44.0641 26.5384 44.032 26.669 43.9688L28.3462 43.125H31.6537L33.3309 43.9688C33.4614 44.032 33.6049 44.0641 33.7499 44.0625H37.4999C37.5871 44.0624 37.6738 44.0504 37.7577 44.0269L44.3202 42.1519C44.4733 42.1077 44.6126 42.0254 44.7252 41.9128L51.7499 34.89L54.674 36.3516L56.2499 38.7188ZM53.8256 30H56.6081L56.9831 30.75L56.7956 30.9375H54.0168L53.6418 30.1875L53.8256 30Z"/>
</mask>
<path d="M57.1874 32.8125C57.3108 32.8125 57.4329 32.7881 57.5468 32.7408C57.6607 32.6935 57.7641 32.6242 57.8512 32.5369L58.7887 31.5994C58.9273 31.4602 59.0188 31.281 59.0501 31.087C59.0814 30.893 59.0509 30.6942 58.9631 30.5184L58.0256 28.6434C57.9478 28.4877 57.8281 28.3568 57.6801 28.2652C57.5321 28.1736 57.3615 28.1251 57.1874 28.125H53.4374C53.1888 28.1251 52.9504 28.2239 52.7746 28.3997L51.8371 29.3372C51.6979 29.4762 51.606 29.6555 51.5744 29.8497C51.5428 30.0438 51.573 30.243 51.6609 30.4191L52.3893 31.875L52.0312 32.5913L50.6934 29.9156C49.7428 28.0139 48.3114 26.394 46.5411 25.2166C44.7709 24.0392 42.7234 23.3454 40.6021 23.2041L30.0618 22.5C30.0206 22.5 29.9793 22.5 29.9381 22.5L19.3977 23.2022C16.912 23.3649 14.5365 24.2882 12.5934 25.8469C11.2185 26.9516 10.0975 28.3393 9.3065 29.9156L7.96868 32.5913L7.61056 31.875L8.34368 30.4191C8.43153 30.243 8.46178 30.0438 8.43015 29.8497C8.39852 29.6555 8.30661 29.4762 8.16743 29.3372L7.22993 28.3997C7.14234 28.3121 7.03825 28.2427 6.92368 28.1955C6.80911 28.1484 6.68633 28.1244 6.56243 28.125H2.81243C2.63838 28.1251 2.46778 28.1736 2.31975 28.2652C2.17173 28.3568 2.05211 28.4877 1.97431 28.6434L1.03681 30.5184C0.950249 30.6935 0.920525 30.8912 0.951787 31.084C0.983049 31.2768 1.07374 31.455 1.21118 31.5938L2.14868 32.5313C2.23529 32.6196 2.33853 32.69 2.45245 32.7382C2.56637 32.7865 2.68871 32.8117 2.81243 32.8125H5.98306L6.42931 33.7059L4.26837 34.7812C4.12279 34.8549 3.99852 34.9646 3.90743 35.1L2.03243 37.9125C1.92912 38.068 1.8743 38.2508 1.87493 38.4375V50.3869C1.87624 50.7848 1.96026 51.1782 2.12165 51.5419C2.28303 51.9057 2.51827 52.232 2.81243 52.5V54.3178C2.80568 55.0711 3.09801 55.7962 3.62528 56.3342C4.15255 56.8722 4.87169 57.1791 5.62493 57.1875H9.37493C10.0036 57.1824 10.6125 56.9675 11.1051 56.5769C11.5976 56.1862 11.9456 55.6422 12.0937 55.0313L14.9062 55.3125C14.9381 55.3125 14.969 55.3172 14.9999 55.3172C15.127 55.3173 15.2527 55.2915 15.3693 55.2413L18.4171 53.9353L18.8484 54.7988C18.9269 54.9537 19.0469 55.0838 19.1951 55.1745C19.3433 55.2653 19.5137 55.313 19.6874 55.3125H40.3124C40.4874 55.3135 40.6592 55.2654 40.8083 55.1738C40.9575 55.0822 41.078 54.9506 41.1562 54.7941L41.5874 53.9306L44.6352 55.2366C44.7505 55.2862 44.8745 55.312 44.9999 55.3125C45.0309 55.3125 45.0618 55.3125 45.0937 55.3078L47.8931 55.0266C48.0328 55.6448 48.3801 56.1965 48.8772 56.5897C49.3743 56.9829 49.9911 57.1939 50.6249 57.1875H54.3749C55.1282 57.1791 55.8473 56.8722 56.3746 56.3342C56.9019 55.7962 57.1942 55.0711 57.1874 54.3178V52.5C57.4817 52.2321 57.7171 51.9058 57.8785 51.5421C58.0399 51.1783 58.1238 50.7849 58.1249 50.3869V38.4375C58.1246 38.2524 58.0699 38.0714 57.9674 37.9172L56.0924 35.1047C56.0013 34.9693 55.8771 34.8596 55.7315 34.7859L53.5752 33.7059L54.0168 32.8125H57.1874ZM13.7662 27.3131C15.4097 25.994 17.4195 25.2127 19.5224 25.0753L29.9999 24.375L40.4774 25.0734C42.2723 25.1936 44.0045 25.781 45.5023 26.7772C47.0001 27.7735 48.2115 29.144 49.0162 30.7528L50.0446 32.8125H9.95431L10.9856 30.75C11.6511 29.4155 12.6001 28.2426 13.7662 27.3131ZM49.2984 34.6875L43.5712 40.4156L37.3687 42.1875H33.9712L32.294 41.3438C32.1634 41.2805 32.02 41.2484 31.8749 41.25H28.1249C27.9799 41.2484 27.8364 41.2805 27.7059 41.3438L26.0287 42.1875H22.6312L16.4437 40.4184L11.0099 34.6875H49.2984ZM5.98587 30.9375H3.2015L3.014 30.75L3.389 30H6.17431L6.36181 30.1875L5.98587 30.9375ZM4.87493 50.0625C4.75323 50.2248 4.68743 50.4222 4.68743 50.625V51.5709L4.17743 51.2213C4.0439 51.1272 3.93523 51.0021 3.86076 50.8568C3.78629 50.7115 3.74825 50.5502 3.74993 50.3869V44.4506L6.79681 47.4975L4.87493 50.0625ZM9.37493 55.3125H5.62493C5.36888 55.3044 5.12646 55.1952 4.95076 55.0088C4.77505 54.8223 4.68036 54.5739 4.68743 54.3178V53.8491L4.87493 53.9756C4.94902 54.0856 5.04603 54.1783 5.15931 54.2472C5.27259 54.3161 5.39946 54.3597 5.53118 54.375L10.1568 54.8381C10.0796 54.9789 9.96672 55.0969 9.82946 55.1801C9.69221 55.2634 9.53544 55.3091 9.37493 55.3125ZM38.8068 50.7009L38.0681 52.4241L39.8568 53.1909L39.7331 53.4375H20.2668L20.1431 53.1909L21.9318 52.4241L21.1931 50.7009L14.8527 53.4197L6.56243 52.5938V50.9372L8.75243 48.0159L19.5449 49.6763C19.5921 49.6838 19.6397 49.6875 19.6874 49.6875H40.3124C40.3598 49.6875 40.4072 49.6837 40.454 49.6763L51.2465 48.0169L53.4374 50.9372V52.5938L45.1471 53.4225L38.8068 50.7009ZM55.1249 50.0625L53.2021 47.4984L56.2499 44.4506V50.3869C56.2516 50.5503 56.2134 50.7116 56.1388 50.857C56.0642 51.0024 55.9553 51.1274 55.8215 51.2213L55.3124 51.5709V50.625C55.3124 50.4222 55.2466 50.2248 55.1249 50.0625ZM54.3749 55.3125H50.6249C50.464 55.3086 50.3069 55.2622 50.1696 55.1781C50.0323 55.094 49.9196 54.9751 49.8431 54.8334L54.4687 54.375C54.6003 54.3599 54.7272 54.3165 54.8405 54.2477C54.9538 54.1789 55.0508 54.0864 55.1249 53.9766L55.3124 53.85V54.3188C55.3193 54.5747 55.2245 54.8229 55.0488 55.0091C54.8731 55.1953 54.6308 55.3044 54.3749 55.3125ZM56.2499 38.7188V41.7966L52.0537 45.9928L40.2402 47.8125H19.7596L7.94712 45.9956L3.74993 41.7994V38.7188L5.32962 36.3488L8.50118 34.7634L15.2568 41.8884C15.3727 42.0098 15.5185 42.0984 15.6796 42.1453L22.2421 44.0203C22.3257 44.0461 22.4125 44.0603 22.4999 44.0625H26.2499C26.395 44.0641 26.5384 44.032 26.669 43.9688L28.3462 43.125H31.6537L33.3309 43.9688C33.4614 44.032 33.6049 44.0641 33.7499 44.0625H37.4999C37.5871 44.0624 37.6738 44.0504 37.7577 44.0269L44.3202 42.1519C44.4733 42.1077 44.6126 42.0254 44.7252 41.9128L51.7499 34.89L54.674 36.3516L56.2499 38.7188ZM53.8256 30H56.6081L56.9831 30.75L56.7956 30.9375H54.0168L53.6418 30.1875L53.8256 30Z" fill="#F50E30"/>
<path d="M57.1874 32.8125C57.3108 32.8125 57.4329 32.7881 57.5468 32.7408C57.6607 32.6935 57.7641 32.6242 57.8512 32.5369L58.7887 31.5994C58.9273 31.4602 59.0188 31.281 59.0501 31.087C59.0814 30.893 59.0509 30.6942 58.9631 30.5184L58.0256 28.6434C57.9478 28.4877 57.8281 28.3568 57.6801 28.2652C57.5321 28.1736 57.3615 28.1251 57.1874 28.125H53.4374C53.1888 28.1251 52.9504 28.2239 52.7746 28.3997L51.8371 29.3372C51.6979 29.4762 51.606 29.6555 51.5744 29.8497C51.5428 30.0438 51.573 30.243 51.6609 30.4191L52.3893 31.875L52.0312 32.5913L50.6934 29.9156C49.7428 28.0139 48.3114 26.394 46.5411 25.2166C44.7709 24.0392 42.7234 23.3454 40.6021 23.2041L30.0618 22.5C30.0206 22.5 29.9793 22.5 29.9381 22.5L19.3977 23.2022C16.912 23.3649 14.5365 24.2882 12.5934 25.8469C11.2185 26.9516 10.0975 28.3393 9.3065 29.9156L7.96868 32.5913L7.61056 31.875L8.34368 30.4191C8.43153 30.243 8.46178 30.0438 8.43015 29.8497C8.39852 29.6555 8.30661 29.4762 8.16743 29.3372L7.22993 28.3997C7.14234 28.3121 7.03825 28.2427 6.92368 28.1955C6.80911 28.1484 6.68633 28.1244 6.56243 28.125H2.81243C2.63838 28.1251 2.46778 28.1736 2.31975 28.2652C2.17173 28.3568 2.05211 28.4877 1.97431 28.6434L1.03681 30.5184C0.950249 30.6935 0.920525 30.8912 0.951787 31.084C0.983049 31.2768 1.07374 31.455 1.21118 31.5938L2.14868 32.5313C2.23529 32.6196 2.33853 32.69 2.45245 32.7382C2.56637 32.7865 2.68871 32.8117 2.81243 32.8125H5.98306L6.42931 33.7059L4.26837 34.7812C4.12279 34.8549 3.99852 34.9646 3.90743 35.1L2.03243 37.9125C1.92912 38.068 1.8743 38.2508 1.87493 38.4375V50.3869C1.87624 50.7848 1.96026 51.1782 2.12165 51.5419C2.28303 51.9057 2.51827 52.232 2.81243 52.5V54.3178C2.80568 55.0711 3.09801 55.7962 3.62528 56.3342C4.15255 56.8722 4.87169 57.1791 5.62493 57.1875H9.37493C10.0036 57.1824 10.6125 56.9675 11.1051 56.5769C11.5976 56.1862 11.9456 55.6422 12.0937 55.0313L14.9062 55.3125C14.9381 55.3125 14.969 55.3172 14.9999 55.3172C15.127 55.3173 15.2527 55.2915 15.3693 55.2413L18.4171 53.9353L18.8484 54.7988C18.9269 54.9537 19.0469 55.0838 19.1951 55.1745C19.3433 55.2653 19.5137 55.313 19.6874 55.3125H40.3124C40.4874 55.3135 40.6592 55.2654 40.8083 55.1738C40.9575 55.0822 41.078 54.9506 41.1562 54.7941L41.5874 53.9306L44.6352 55.2366C44.7505 55.2862 44.8745 55.312 44.9999 55.3125C45.0309 55.3125 45.0618 55.3125 45.0937 55.3078L47.8931 55.0266C48.0328 55.6448 48.3801 56.1965 48.8772 56.5897C49.3743 56.9829 49.9911 57.1939 50.6249 57.1875H54.3749C55.1282 57.1791 55.8473 56.8722 56.3746 56.3342C56.9019 55.7962 57.1942 55.0711 57.1874 54.3178V52.5C57.4817 52.2321 57.7171 51.9058 57.8785 51.5421C58.0399 51.1783 58.1238 50.7849 58.1249 50.3869V38.4375C58.1246 38.2524 58.0699 38.0714 57.9674 37.9172L56.0924 35.1047C56.0013 34.9693 55.8771 34.8596 55.7315 34.7859L53.5752 33.7059L54.0168 32.8125H57.1874ZM13.7662 27.3131C15.4097 25.994 17.4195 25.2127 19.5224 25.0753L29.9999 24.375L40.4774 25.0734C42.2723 25.1936 44.0045 25.781 45.5023 26.7772C47.0001 27.7735 48.2115 29.144 49.0162 30.7528L50.0446 32.8125H9.95431L10.9856 30.75C11.6511 29.4155 12.6001 28.2426 13.7662 27.3131ZM49.2984 34.6875L43.5712 40.4156L37.3687 42.1875H33.9712L32.294 41.3438C32.1634 41.2805 32.02 41.2484 31.8749 41.25H28.1249C27.9799 41.2484 27.8364 41.2805 27.7059 41.3438L26.0287 42.1875H22.6312L16.4437 40.4184L11.0099 34.6875H49.2984ZM5.98587 30.9375H3.2015L3.014 30.75L3.389 30H6.17431L6.36181 30.1875L5.98587 30.9375ZM4.87493 50.0625C4.75323 50.2248 4.68743 50.4222 4.68743 50.625V51.5709L4.17743 51.2213C4.0439 51.1272 3.93523 51.0021 3.86076 50.8568C3.78629 50.7115 3.74825 50.5502 3.74993 50.3869V44.4506L6.79681 47.4975L4.87493 50.0625ZM9.37493 55.3125H5.62493C5.36888 55.3044 5.12646 55.1952 4.95076 55.0088C4.77505 54.8223 4.68036 54.5739 4.68743 54.3178V53.8491L4.87493 53.9756C4.94902 54.0856 5.04603 54.1783 5.15931 54.2472C5.27259 54.3161 5.39946 54.3597 5.53118 54.375L10.1568 54.8381C10.0796 54.9789 9.96672 55.0969 9.82946 55.1801C9.69221 55.2634 9.53544 55.3091 9.37493 55.3125ZM38.8068 50.7009L38.0681 52.4241L39.8568 53.1909L39.7331 53.4375H20.2668L20.1431 53.1909L21.9318 52.4241L21.1931 50.7009L14.8527 53.4197L6.56243 52.5938V50.9372L8.75243 48.0159L19.5449 49.6763C19.5921 49.6838 19.6397 49.6875 19.6874 49.6875H40.3124C40.3598 49.6875 40.4072 49.6837 40.454 49.6763L51.2465 48.0169L53.4374 50.9372V52.5938L45.1471 53.4225L38.8068 50.7009ZM55.1249 50.0625L53.2021 47.4984L56.2499 44.4506V50.3869C56.2516 50.5503 56.2134 50.7116 56.1388 50.857C56.0642 51.0024 55.9553 51.1274 55.8215 51.2213L55.3124 51.5709V50.625C55.3124 50.4222 55.2466 50.2248 55.1249 50.0625ZM54.3749 55.3125H50.6249C50.464 55.3086 50.3069 55.2622 50.1696 55.1781C50.0323 55.094 49.9196 54.9751 49.8431 54.8334L54.4687 54.375C54.6003 54.3599 54.7272 54.3165 54.8405 54.2477C54.9538 54.1789 55.0508 54.0864 55.1249 53.9766L55.3124 53.85V54.3188C55.3193 54.5747 55.2245 54.8229 55.0488 55.0091C54.8731 55.1953 54.6308 55.3044 54.3749 55.3125ZM56.2499 38.7188V41.7966L52.0537 45.9928L40.2402 47.8125H19.7596L7.94712 45.9956L3.74993 41.7994V38.7188L5.32962 36.3488L8.50118 34.7634L15.2568 41.8884C15.3727 42.0098 15.5185 42.0984 15.6796 42.1453L22.2421 44.0203C22.3257 44.0461 22.4125 44.0603 22.4999 44.0625H26.2499C26.395 44.0641 26.5384 44.032 26.669 43.9688L28.3462 43.125H31.6537L33.3309 43.9688C33.4614 44.032 33.6049 44.0641 33.7499 44.0625H37.4999C37.5871 44.0624 37.6738 44.0504 37.7577 44.0269L44.3202 42.1519C44.4733 42.1077 44.6126 42.0254 44.7252 41.9128L51.7499 34.89L54.674 36.3516L56.2499 38.7188ZM53.8256 30H56.6081L56.9831 30.75L56.7956 30.9375H54.0168L53.6418 30.1875L53.8256 30Z" stroke="#F50E30" stroke-width="0.6" stroke-linejoin="round" mask="url(#path-6-outside-1_1279_178)"/>
<path d="M29.0625 45C29.0625 45.5178 29.4822 45.9375 30 45.9375C30.5178 45.9375 30.9375 45.5178 30.9375 45C30.9375 44.4822 30.5178 44.0625 30 44.0625C29.4822 44.0625 29.0625 44.4822 29.0625 45Z" fill="#F50E30"/>
</svg>
