<svg viewBox="0 0 60 60" fill="none" xmlns="http://www.w3.org/2000/svg"><g clip-path="url(#a)"><path d="M11.678 36.643c-6.435 0-11.67 5.235-11.67 11.67s5.235 11.67 11.67 11.67 11.67-5.235 11.67-11.67-5.235-11.67-11.67-11.67Zm0 19.47c-4.301 0-7.8-3.5-7.8-7.8 0-4.301 3.499-7.8 7.8-7.8s7.8 3.499 7.8 7.8c0 4.3-3.499 7.8-7.8 7.8Z" fill="#F50E30"/><path d="M54.066 18.261v-2.66a5.811 5.811 0 0 0-5.805-5.805h-3.386V4.837A4.843 4.843 0 0 0 40.037 0H26.01a4.843 4.843 0 0 0-4.837 4.837v4.959H9.682c-5.334 0-9.674 4.34-9.674 9.675v15.6a1.935 1.935 0 1 0 3.87 0v-15.6a5.811 5.811 0 0 1 5.805-5.805h11.489v4.595h-5.564a1.935 1.935 0 1 0 0 3.87h38.579c1.067 0 1.935.874 1.935 1.947v30.089a1.943 1.943 0 0 1-1.935 1.947H31.51a1.935 1.935 0 1 0 0 3.87h22.676c3.2 0 5.805-2.61 5.805-5.817V24.078c0-3.065-2.419-5.817-5.926-5.817Zm-5.805-4.595c1.067 0 1.935.868 1.935 1.935v2.66h-5.321v-4.595h3.386Zm-7.256-8.829v13.424h-8.647V3.87h7.68c.533 0 .967.434.967.967Zm-15.964 0c0-.533.434-.967.968-.967h2.479v14.39h-3.447V4.837Z" fill="#F50E30"/><path d="M51.406 39.485a3.693 3.693 0 0 0-3.688-3.688 3.693 3.693 0 0 0-3.689 3.688 3.693 3.693 0 0 0 3.689 3.689 3.693 3.693 0 0 0 3.688-3.689ZM23.981 57.309c-1.035 2.492 3.065 4.005 3.684 1.119.451-2.337-2.852-3.217-3.684-1.12Z" fill="#F50E30"/><path d="m8 48 3 2.5 4.5-4.5" stroke="#F50E30" stroke-width="3" stroke-linecap="round" stroke-linejoin="round"/></g><defs><clipPath id="a"><path fill="#fff" d="M0 0h60v60H0z"/></clipPath></defs></svg>