<svg viewBox="0 0 60 60" fill="none" xmlns="http://www.w3.org/2000/svg"><g clip-path="url(#a)" fill="#F50E30"><path d="m59.968 26.205-.003-2.614c-.004-2.472-2.04-4.489-4.538-4.495h-.012a4.52 4.52 0 0 0-3.218 1.326 4.427 4.427 0 0 0-1.31 3.159l.034 30.506c0 .346.103.684.294.972l2.764 4.156a1.76 1.76 0 0 0 1.459.784h.005c.585 0 1.131-.29 1.458-.776l2.798-4.156c.196-.29.3-.633.3-.984l-.031-27.878Zm-5.566-2.628c0-.25.1-.487.28-.667.192-.193.453-.299.733-.299h.003c.568.002 1.03.443 1.031.984l.002 1.177h-2.047l-.002-1.195Zm.006 4.71h2.047l.021 19.102h-2.047l-.021-19.101Zm1.044 26.794-1.016-1.528-.003-2.648h2.047l.003 2.645-1.031 1.53ZM41.57 0H5.274A5.28 5.28 0 0 0 .001 5.273v49.454A5.28 5.28 0 0 0 5.274 60H41.57a5.28 5.28 0 0 0 5.273-5.273V5.273A5.28 5.28 0 0 0 41.57 0Zm1.758 54.727a1.76 1.76 0 0 1-1.758 1.757H5.274a1.76 1.76 0 0 1-1.758-1.757V5.273a1.76 1.76 0 0 1 1.758-1.757H41.57c.97 0 1.758.788 1.758 1.757v49.454Z"/><path d="M36.858 9.924H9.99a1.758 1.758 0 0 0 0 3.516h26.868a1.758 1.758 0 0 0 0-3.516Zm0 7.582H9.99a1.758 1.758 0 0 0 0 3.515h26.868a1.758 1.758 0 0 0 0-3.515Zm0 7.582H9.99a1.758 1.758 0 0 0 0 3.515h26.868a1.758 1.758 0 0 0 0-3.515ZM26.565 32.67H9.99a1.758 1.758 0 0 0 0 3.515h16.575a1.758 1.758 0 0 0 0-3.515Zm6.02 5.484c-4.29 0-7.778 3.439-7.778 7.665s3.489 7.664 7.778 7.664 7.778-3.438 7.778-7.664c0-4.226-3.489-7.665-7.778-7.665Zm0 11.814c-2.35 0-4.263-1.861-4.263-4.149 0-2.288 1.913-4.149 4.263-4.149 2.35 0 4.263 1.861 4.263 4.15 0 2.287-1.913 4.148-4.263 4.148Z"/></g><defs><clipPath id="a"><path fill="#fff" d="M0 0h60v60H0z"/></clipPath></defs></svg>