<svg viewBox="0 0 60 60" fill="none" xmlns="http://www.w3.org/2000/svg"><path d="M45.313 46.411a9.403 9.403 0 1 0-2.651 2.652l2.887 2.887a1.875 1.875 0 0 0 2.652-2.651l-2.888-2.888ZM31.875 41.25a5.625 5.625 0 1 1 11.25 0 5.625 5.625 0 0 1-11.25 0Z" fill="#F50E30"/><path d="M43.125 3.75h-26.25a5.625 5.625 0 0 0-5.625 5.625v41.25a5.625 5.625 0 0 0 5.625 5.625H30a1.875 1.875 0 1 0 0-3.75H16.875A1.875 1.875 0 0 1 15 50.625V9.375A1.875 1.875 0 0 1 16.875 7.5h26.25A1.875 1.875 0 0 1 45 9.375V30a1.875 1.875 0 1 0 3.75 0V9.375a5.625 5.625 0 0 0-5.625-5.625Z" fill="#F50E30"/><path d="M22.5 16.875h15a1.875 1.875 0 1 0 0-3.75h-15a1.875 1.875 0 1 0 0 3.75Zm16.875 7.5A1.875 1.875 0 0 0 37.5 22.5h-15a1.875 1.875 0 1 0 0 3.75h15a1.875 1.875 0 0 0 1.875-1.875Zm-16.875 7.5a1.875 1.875 0 1 0 0 3.75h1.875a1.875 1.875 0 1 0 0-3.75H22.5Z" fill="#F50E30"/></svg>