<svg viewBox="0 0 60 60" fill="none" xmlns="http://www.w3.org/2000/svg"><mask id="a" maskUnits="userSpaceOnUse" x="0" y="2" width="60" height="55" fill="#000"><path fill="#fff" d="M0 2h60v55H0z"/><path d="M56.1 3H11.633a2.895 2.895 0 0 0-2.9 2.89v13.564c-4.01.29-7.733 1.5-7.733 3.782v28.91C1 54.794 6.011 56 10.667 56c3.42 0 7.024-.654 8.7-2.049 1.676 1.395 5.28 2.049 8.7 2.049 4.655 0 9.666-1.206 9.666-3.855V36.727H56.1c1.602 0 2.9-1.294 2.9-2.89V5.89A2.895 2.895 0 0 0 56.1 3ZM10.667 5.89c0-.531.433-.963.966-.963H56.1c.534 0 .967.432.967.964V24.2H20.333v-.964c0-2.648-5.01-3.854-9.666-3.854V5.89Zm46.4 24.092H34.722a21.057 21.057 0 0 0-6.655-.964 18.425 18.425 0 0 0-7.734 1.422v-4.313h36.734v3.855ZM35.8 47.327c0 .496-2.66 1.928-7.733 1.928-5.074 0-7.734-1.432-7.734-1.928v-2.386a18.425 18.425 0 0 0 7.734 1.423c2.65.087 5.288-.398 7.733-1.423v2.386Zm0-14.454c0 .495-2.66 1.927-7.733 1.927-5.074 0-7.734-1.432-7.734-1.927 0-.496 2.66-1.927 7.734-1.927s7.733 1.431 7.733 1.927Zm0 4.818c0 .495-2.66 1.927-7.733 1.927-5.074 0-7.734-1.432-7.734-1.927v-2.386a18.426 18.426 0 0 0 7.734 1.422 18.42 18.42 0 0 0 7.733-1.422v2.386Zm-17.4-9.637c0 .496-2.66 1.928-7.733 1.928-5.074 0-7.734-1.432-7.734-1.927v-2.386a18.425 18.425 0 0 0 7.734 1.422c2.65.088 5.288-.398 7.733-1.422v2.386Zm-7.733 3.855a18.42 18.42 0 0 0 7.733-1.422v2.386c0 .495-2.66 1.927-7.733 1.927-5.074 0-7.734-1.432-7.734-1.927v-2.386a18.426 18.426 0 0 0 7.734 1.422Zm0 4.818a18.42 18.42 0 0 0 7.733-1.422v2.386c0 .495-2.66 1.927-7.733 1.927-5.074 0-7.734-1.432-7.734-1.927v-2.386a18.426 18.426 0 0 0 7.734 1.422Zm0 4.819c2.65.087 5.288-.398 7.733-1.423v2.386c0 .495-2.66 1.927-7.733 1.927-5.074 0-7.734-1.432-7.734-1.927v-2.386a18.426 18.426 0 0 0 7.734 1.422ZM2.933 44.94a18.425 18.425 0 0 0 7.734 1.423c2.65.087 5.288-.398 7.733-1.423v2.386c0 .496-2.66 1.928-7.733 1.928-5.074 0-7.734-1.432-7.734-1.928V44.94ZM35.8 42.51c0 .495-2.66 1.927-7.733 1.927-5.074 0-7.734-1.432-7.734-1.927v-2.386a18.426 18.426 0 0 0 7.734 1.422 18.42 18.42 0 0 0 7.733-1.422v2.386Zm-25.133-21.2c5.074 0 7.733 1.432 7.733 1.927 0 .496-2.66 1.928-7.733 1.928-5.074 0-7.734-1.432-7.734-1.928 0-.495 2.66-1.927 7.734-1.927Zm0 32.764c-5.074 0-7.734-1.432-7.734-1.928V49.76a18.425 18.425 0 0 0 7.734 1.423c2.65.088 5.288-.398 7.733-1.422v2.386c0 .495-2.66 1.927-7.733 1.927Zm17.4 0c-5.074 0-7.734-1.432-7.734-1.928V49.76a18.425 18.425 0 0 0 7.734 1.423c2.65.088 5.288-.398 7.733-1.422v2.386c0 .495-2.66 1.927-7.733 1.927ZM56.1 34.8H37.733v-1.927a2.018 2.018 0 0 0-.25-.964h19.584v1.927a.965.965 0 0 1-.967.964Z"/></mask><path d="M56.1 3H11.633a2.895 2.895 0 0 0-2.9 2.89v13.564c-4.01.29-7.733 1.5-7.733 3.782v28.91C1 54.794 6.011 56 10.667 56c3.42 0 7.024-.654 8.7-2.049 1.676 1.395 5.28 2.049 8.7 2.049 4.655 0 9.666-1.206 9.666-3.855V36.727H56.1c1.602 0 2.9-1.294 2.9-2.89V5.89A2.895 2.895 0 0 0 56.1 3ZM10.667 5.89c0-.531.433-.963.966-.963H56.1c.534 0 .967.432.967.964V24.2H20.333v-.964c0-2.648-5.01-3.854-9.666-3.854V5.89Zm46.4 24.092H34.722a21.057 21.057 0 0 0-6.655-.964 18.425 18.425 0 0 0-7.734 1.422v-4.313h36.734v3.855ZM35.8 47.327c0 .496-2.66 1.928-7.733 1.928-5.074 0-7.734-1.432-7.734-1.928v-2.386a18.425 18.425 0 0 0 7.734 1.423c2.65.087 5.288-.398 7.733-1.423v2.386Zm0-14.454c0 .495-2.66 1.927-7.733 1.927-5.074 0-7.734-1.432-7.734-1.927 0-.496 2.66-1.927 7.734-1.927s7.733 1.431 7.733 1.927Zm0 4.818c0 .495-2.66 1.927-7.733 1.927-5.074 0-7.734-1.432-7.734-1.927v-2.386a18.426 18.426 0 0 0 7.734 1.422 18.42 18.42 0 0 0 7.733-1.422v2.386Zm-17.4-9.637c0 .496-2.66 1.928-7.733 1.928-5.074 0-7.734-1.432-7.734-1.927v-2.386a18.425 18.425 0 0 0 7.734 1.422c2.65.088 5.288-.398 7.733-1.422v2.386Zm-7.733 3.855a18.42 18.42 0 0 0 7.733-1.422v2.386c0 .495-2.66 1.927-7.733 1.927-5.074 0-7.734-1.432-7.734-1.927v-2.386a18.426 18.426 0 0 0 7.734 1.422Zm0 4.818a18.42 18.42 0 0 0 7.733-1.422v2.386c0 .495-2.66 1.927-7.733 1.927-5.074 0-7.734-1.432-7.734-1.927v-2.386a18.426 18.426 0 0 0 7.734 1.422Zm0 4.819c2.65.087 5.288-.398 7.733-1.423v2.386c0 .495-2.66 1.927-7.733 1.927-5.074 0-7.734-1.432-7.734-1.927v-2.386a18.426 18.426 0 0 0 7.734 1.422ZM2.933 44.94a18.425 18.425 0 0 0 7.734 1.423c2.65.087 5.288-.398 7.733-1.423v2.386c0 .496-2.66 1.928-7.733 1.928-5.074 0-7.734-1.432-7.734-1.928V44.94ZM35.8 42.51c0 .495-2.66 1.927-7.733 1.927-5.074 0-7.734-1.432-7.734-1.927v-2.386a18.426 18.426 0 0 0 7.734 1.422 18.42 18.42 0 0 0 7.733-1.422v2.386Zm-25.133-21.2c5.074 0 7.733 1.432 7.733 1.927 0 .496-2.66 1.928-7.733 1.928-5.074 0-7.734-1.432-7.734-1.928 0-.495 2.66-1.927 7.734-1.927Zm0 32.764c-5.074 0-7.734-1.432-7.734-1.928V49.76a18.425 18.425 0 0 0 7.734 1.423c2.65.088 5.288-.398 7.733-1.422v2.386c0 .495-2.66 1.927-7.733 1.927Zm17.4 0c-5.074 0-7.734-1.432-7.734-1.928V49.76a18.425 18.425 0 0 0 7.734 1.423c2.65.088 5.288-.398 7.733-1.422v2.386c0 .495-2.66 1.927-7.733 1.927ZM56.1 34.8H37.733v-1.927a2.018 2.018 0 0 0-.25-.964h19.584v1.927a.965.965 0 0 1-.967.964Z" fill="#F50E30"/><path d="M56.1 3H11.633a2.895 2.895 0 0 0-2.9 2.89v13.564c-4.01.29-7.733 1.5-7.733 3.782v28.91C1 54.794 6.011 56 10.667 56c3.42 0 7.024-.654 8.7-2.049 1.676 1.395 5.28 2.049 8.7 2.049 4.655 0 9.666-1.206 9.666-3.855V36.727H56.1c1.602 0 2.9-1.294 2.9-2.89V5.89A2.895 2.895 0 0 0 56.1 3ZM10.667 5.89c0-.531.433-.963.966-.963H56.1c.534 0 .967.432.967.964V24.2H20.333v-.964c0-2.648-5.01-3.854-9.666-3.854V5.89Zm46.4 24.092H34.722a21.057 21.057 0 0 0-6.655-.964 18.425 18.425 0 0 0-7.734 1.422v-4.313h36.734v3.855ZM35.8 47.327c0 .496-2.66 1.928-7.733 1.928-5.074 0-7.734-1.432-7.734-1.928v-2.386a18.425 18.425 0 0 0 7.734 1.423c2.65.087 5.288-.398 7.733-1.423v2.386Zm0-14.454c0 .495-2.66 1.927-7.733 1.927-5.074 0-7.734-1.432-7.734-1.927 0-.496 2.66-1.927 7.734-1.927s7.733 1.431 7.733 1.927Zm0 4.818c0 .495-2.66 1.927-7.733 1.927-5.074 0-7.734-1.432-7.734-1.927v-2.386a18.426 18.426 0 0 0 7.734 1.422 18.42 18.42 0 0 0 7.733-1.422v2.386Zm-17.4-9.637c0 .496-2.66 1.928-7.733 1.928-5.074 0-7.734-1.432-7.734-1.927v-2.386a18.425 18.425 0 0 0 7.734 1.422c2.65.088 5.288-.398 7.733-1.422v2.386Zm-7.733 3.855a18.42 18.42 0 0 0 7.733-1.422v2.386c0 .495-2.66 1.927-7.733 1.927-5.074 0-7.734-1.432-7.734-1.927v-2.386a18.426 18.426 0 0 0 7.734 1.422Zm0 4.818a18.42 18.42 0 0 0 7.733-1.422v2.386c0 .495-2.66 1.927-7.733 1.927-5.074 0-7.734-1.432-7.734-1.927v-2.386a18.426 18.426 0 0 0 7.734 1.422Zm0 4.819c2.65.087 5.288-.398 7.733-1.423v2.386c0 .495-2.66 1.927-7.733 1.927-5.074 0-7.734-1.432-7.734-1.927v-2.386a18.426 18.426 0 0 0 7.734 1.422ZM2.933 44.94a18.425 18.425 0 0 0 7.734 1.423c2.65.087 5.288-.398 7.733-1.423v2.386c0 .496-2.66 1.928-7.733 1.928-5.074 0-7.734-1.432-7.734-1.928V44.94ZM35.8 42.51c0 .495-2.66 1.927-7.733 1.927-5.074 0-7.734-1.432-7.734-1.927v-2.386a18.426 18.426 0 0 0 7.734 1.422 18.42 18.42 0 0 0 7.733-1.422v2.386Zm-25.133-21.2c5.074 0 7.733 1.432 7.733 1.927 0 .496-2.66 1.928-7.733 1.928-5.074 0-7.734-1.432-7.734-1.928 0-.495 2.66-1.927 7.734-1.927Zm0 32.764c-5.074 0-7.734-1.432-7.734-1.928V49.76a18.425 18.425 0 0 0 7.734 1.423c2.65.088 5.288-.398 7.733-1.422v2.386c0 .495-2.66 1.927-7.733 1.927Zm17.4 0c-5.074 0-7.734-1.432-7.734-1.928V49.76a18.425 18.425 0 0 0 7.734 1.423c2.65.088 5.288-.398 7.733-1.422v2.386c0 .495-2.66 1.927-7.733 1.927ZM56.1 34.8H37.733v-1.927a2.018 2.018 0 0 0-.25-.964h19.584v1.927a.965.965 0 0 1-.967.964Z" stroke="#F50E30" stroke-width=".8" mask="url(#a)"/><path d="M50 17.7a5.2 5.2 0 1 0 0-10.4 5.15 5.15 0 0 0-2.989.967 5.2 5.2 0 1 0 0 8.466A5.15 5.15 0 0 0 50 17.7Zm2.8-5.2a2.8 2.8 0 1 1-5.6 0 2.8 2.8 0 0 1 5.6 0ZM44 9.7c.498.003.986.14 1.411.395a5.032 5.032 0 0 0 0 4.808A2.794 2.794 0 1 1 43.999 9.7Z" fill="#F50E30" stroke="#F50E30" stroke-width=".4"/><path d="M24 21.8h1a1.3 1.3 0 1 0 0-2.6h-1a1.3 1.3 0 1 0 0 2.6Zm5 0h1a1.3 1.3 0 1 0 0-2.6h-1a1.3 1.3 0 1 0 0 2.6Zm5 0h1a1.3 1.3 0 1 0 0-2.6h-1a1.3 1.3 0 1 0 0 2.6Z" fill="#F50E30" stroke="#F50E30" stroke-width=".6"/></svg>