<svg viewBox="0 0 60 60" fill="none" xmlns="http://www.w3.org/2000/svg"><path d="M13.946 20.635c.128.501.536.927 1.054.927s.926-.426 1.054-.927a3.75 3.75 0 0 1 2.706-2.706c.501-.128.927-.536.927-1.054s-.426-.926-.927-1.054a3.75 3.75 0 0 1-2.706-2.706c-.128-.501-.536-.928-1.054-.928s-.926.427-1.054.928a3.75 3.75 0 0 1-2.706 2.706c-.501.128-.928.536-.928 1.054s.427.926.928 1.054a3.75 3.75 0 0 1 2.706 2.706Zm.34-4.473a1.037 1.037 0 0 1 1.427 0 1.037 1.037 0 0 1 0 1.426 1.037 1.037 0 0 1-1.426 0 1.037 1.037 0 0 1 0-1.426Zm29.66 4.473c.128.501.536.927 1.054.927s.926-.426 1.054-.927a3.75 3.75 0 0 1 2.706-2.706c.501-.128.928-.536.928-1.054s-.427-.926-.928-1.054a3.75 3.75 0 0 1-2.706-2.706c-.128-.501-.536-.928-1.054-.928s-.926.427-1.054.928a3.75 3.75 0 0 1-2.706 2.706c-.501.128-.928.536-.928 1.054s.427.926.928 1.054a3.75 3.75 0 0 1 2.706 2.706Zm.34-4.473a1.037 1.037 0 0 1 1.427 0 1.037 1.037 0 0 1 0 1.426 1.037 1.037 0 0 1-1.426 0 1.037 1.037 0 0 1 0-1.426Zm-15.34-3.965c.128.502.536.928 1.054.928s.926-.426 1.054-.928a3.75 3.75 0 0 1 2.706-2.705c.501-.129.928-.537.928-1.055 0-.517-.427-.925-.928-1.054a3.75 3.75 0 0 1-2.706-2.705c-.128-.502-.536-.928-1.054-.928s-.926.426-1.054.928a3.75 3.75 0 0 1-2.706 2.705c-.501.129-.927.537-.927 1.054 0 .518.426.926.927 1.055a3.75 3.75 0 0 1 2.706 2.705Zm.34-4.473a1.037 1.037 0 0 1 1.427 0 1.037 1.037 0 0 1 0 1.427 1.037 1.037 0 0 1-1.426 0 1.037 1.037 0 0 1 0-1.427ZM13.638 41.403l-6.563-4.29a.937.937 0 0 0-1.45.726l-.262 4.174a.938.938 0 0 0 .446.858l3.75 2.3a.937.937 0 0 0 1.031-.034l3.074-2.185a.936.936 0 0 0-.03-1.55h.004Zm-3.626 1.846-2.74-1.681.126-2.005 4.063 2.655-1.449 1.03Zm35.925-1.079a.937.937 0 0 0 .395.782l3.074 2.186a.938.938 0 0 0 1.031.034l3.75-2.3a.937.937 0 0 0 .446-.858l-.258-4.175a.937.937 0 0 0-1.449-.725l-6.562 4.29a.938.938 0 0 0-.427.766Zm6.665-2.607.127 2.005-2.742 1.682-1.448-1.032 4.063-2.655Z" fill="#F50E30"/><mask id="a" maskUnits="userSpaceOnUse" x="-.06" y="21.5" width="60" height="36" fill="#000"><path fill="#fff" d="M-.06 21.5h60v36h-60z"/><path d="M57.187 32.813a.937.937 0 0 0 .664-.276l.938-.938a.938.938 0 0 0 .174-1.08l-.937-1.876a.938.938 0 0 0-.839-.518h-3.75a.938.938 0 0 0-.662.275l-.938.937a.937.937 0 0 0-.176 1.082l.728 1.456-.358.716-1.338-2.675a12.188 12.188 0 0 0-10.09-6.712L30.061 22.5h-.124l-10.54.702a12.142 12.142 0 0 0-6.805 2.645 12.29 12.29 0 0 0-3.287 4.069L7.97 32.59l-.358-.716.733-1.456a.938.938 0 0 0-.177-1.082L7.23 28.4a.939.939 0 0 0-.668-.275h-3.75a.937.937 0 0 0-.838.518l-.937 1.875a.938.938 0 0 0 .174 1.076l.938.937a.937.937 0 0 0 .663.282h3.171l.446.893-2.16 1.075a.955.955 0 0 0-.362.319l-1.875 2.813a.943.943 0 0 0-.157.525v11.949a2.871 2.871 0 0 0 .937 2.113v1.818a2.844 2.844 0 0 0 2.813 2.87h3.75a2.821 2.821 0 0 0 2.719-2.157l2.812.282c.032 0 .063.004.094.004a.932.932 0 0 0 .37-.076l3.047-1.306.431.864a.937.937 0 0 0 .84.514h20.624a.937.937 0 0 0 .844-.519l.431-.863 3.048 1.306a.92.92 0 0 0 .365.075c.03 0 .062 0 .094-.004l2.8-.281a2.772 2.772 0 0 0 2.73 2.16h3.75a2.844 2.844 0 0 0 2.813-2.87V52.5a2.87 2.87 0 0 0 .938-2.113v-11.95a.943.943 0 0 0-.158-.52l-1.875-2.812a.954.954 0 0 0-.36-.32l-2.157-1.08.442-.892h3.17Zm-43.42-5.5a10.266 10.266 0 0 1 5.755-2.238l10.478-.7 10.477.698a10.318 10.318 0 0 1 8.54 5.68l1.028 2.06H9.955l1.03-2.063a10.238 10.238 0 0 1 2.781-3.437Zm35.531 7.375-5.727 5.728-6.202 1.772H33.97l-1.677-.844a.937.937 0 0 0-.42-.094h-3.75a.937.937 0 0 0-.418.094l-1.677.843H22.63l-6.187-1.769-5.434-5.73h38.288Zm-43.312-3.75H3.202l-.188-.188.375-.75h2.785l.188.188-.376.75ZM4.875 50.063a.938.938 0 0 0-.188.562v.946l-.51-.35a1.009 1.009 0 0 1-.427-.834V44.45l3.047 3.047-1.922 2.565Zm4.5 5.25h-3.75a.969.969 0 0 1-.938-.995v-.469l.188.127a.918.918 0 0 0 .656.399l4.626.463a.913.913 0 0 1-.782.474ZM38.807 50.7l-.739 1.723 1.789.767-.124.246H20.267l-.124-.246 1.789-.767-.739-1.723-6.34 2.719-8.29-.826v-1.657l2.19-2.921 10.792 1.66a.908.908 0 0 0 .142.011h20.625a.907.907 0 0 0 .142-.01l10.792-1.66 2.191 2.92v1.657l-8.29.828-6.34-2.721Zm16.318-.639-1.923-2.564 3.048-3.047v5.936a1.007 1.007 0 0 1-.428.834l-.51.35v-.946c0-.203-.065-.4-.187-.563Zm-.75 5.25h-3.75a.914.914 0 0 1-.782-.479l4.626-.458a.918.918 0 0 0 .656-.398l.187-.127v.469a.968.968 0 0 1-.937.993ZM56.25 38.72v3.078l-4.196 4.196-11.814 1.82H19.76L7.947 45.995 3.75 41.799v-3.08l1.58-2.37 3.17-1.586 6.756 7.125c.116.122.261.21.423.257l6.562 1.875a.94.94 0 0 0 .258.042h3.75a.938.938 0 0 0 .419-.093l1.677-.844h3.308l1.677.844c.13.063.274.095.419.093h3.75a.96.96 0 0 0 .258-.035l6.562-1.875a.942.942 0 0 0 .405-.24l7.025-7.022 2.924 1.462 1.576 2.367ZM53.826 30h2.782l.375.75-.187.188h-2.78l-.374-.75.184-.188Z"/></mask><path d="M57.187 32.813a.937.937 0 0 0 .664-.276l.938-.938a.938.938 0 0 0 .174-1.08l-.937-1.876a.938.938 0 0 0-.839-.518h-3.75a.938.938 0 0 0-.662.275l-.938.937a.937.937 0 0 0-.176 1.082l.728 1.456-.358.716-1.338-2.675a12.188 12.188 0 0 0-10.09-6.712L30.061 22.5h-.124l-10.54.702a12.142 12.142 0 0 0-6.805 2.645 12.29 12.29 0 0 0-3.287 4.069L7.97 32.59l-.358-.716.733-1.456a.938.938 0 0 0-.177-1.082L7.23 28.4a.939.939 0 0 0-.668-.275h-3.75a.937.937 0 0 0-.838.518l-.937 1.875a.938.938 0 0 0 .174 1.076l.938.937a.937.937 0 0 0 .663.282h3.171l.446.893-2.16 1.075a.955.955 0 0 0-.362.319l-1.875 2.813a.943.943 0 0 0-.157.525v11.949a2.871 2.871 0 0 0 .937 2.113v1.818a2.844 2.844 0 0 0 2.813 2.87h3.75a2.821 2.821 0 0 0 2.719-2.157l2.812.282c.032 0 .063.004.094.004a.932.932 0 0 0 .37-.076l3.047-1.306.431.864a.937.937 0 0 0 .84.514h20.624a.937.937 0 0 0 .844-.519l.431-.863 3.048 1.306a.92.92 0 0 0 .365.075c.03 0 .062 0 .094-.004l2.8-.281a2.772 2.772 0 0 0 2.73 2.16h3.75a2.844 2.844 0 0 0 2.813-2.87V52.5a2.87 2.87 0 0 0 .938-2.113v-11.95a.943.943 0 0 0-.158-.52l-1.875-2.812a.954.954 0 0 0-.36-.32l-2.157-1.08.442-.892h3.17Zm-43.42-5.5a10.266 10.266 0 0 1 5.755-2.238l10.478-.7 10.477.698a10.318 10.318 0 0 1 8.54 5.68l1.028 2.06H9.955l1.03-2.063a10.238 10.238 0 0 1 2.781-3.437Zm35.531 7.375-5.727 5.728-6.202 1.772H33.97l-1.677-.844a.937.937 0 0 0-.42-.094h-3.75a.937.937 0 0 0-.418.094l-1.677.843H22.63l-6.187-1.769-5.434-5.73h38.288Zm-43.312-3.75H3.202l-.188-.188.375-.75h2.785l.188.188-.376.75ZM4.875 50.063a.938.938 0 0 0-.188.562v.946l-.51-.35a1.009 1.009 0 0 1-.427-.834V44.45l3.047 3.047-1.922 2.565Zm4.5 5.25h-3.75a.969.969 0 0 1-.938-.995v-.469l.188.127a.918.918 0 0 0 .656.399l4.626.463a.913.913 0 0 1-.782.474ZM38.807 50.7l-.739 1.723 1.789.767-.124.246H20.267l-.124-.246 1.789-.767-.739-1.723-6.34 2.719-8.29-.826v-1.657l2.19-2.921 10.792 1.66a.908.908 0 0 0 .142.011h20.625a.907.907 0 0 0 .142-.01l10.792-1.66 2.191 2.92v1.657l-8.29.828-6.34-2.721Zm16.318-.639-1.923-2.564 3.048-3.047v5.936a1.007 1.007 0 0 1-.428.834l-.51.35v-.946c0-.203-.065-.4-.187-.563Zm-.75 5.25h-3.75a.914.914 0 0 1-.782-.479l4.626-.458a.918.918 0 0 0 .656-.398l.187-.127v.469a.968.968 0 0 1-.937.993ZM56.25 38.72v3.078l-4.196 4.196-11.814 1.82H19.76L7.947 45.995 3.75 41.799v-3.08l1.58-2.37 3.17-1.586 6.756 7.125c.116.122.261.21.423.257l6.562 1.875a.94.94 0 0 0 .258.042h3.75a.938.938 0 0 0 .419-.093l1.677-.844h3.308l1.677.844c.13.063.274.095.419.093h3.75a.96.96 0 0 0 .258-.035l6.562-1.875a.942.942 0 0 0 .405-.24l7.025-7.022 2.924 1.462 1.576 2.367ZM53.826 30h2.782l.375.75-.187.188h-2.78l-.374-.75.184-.188Z" fill="#F50E30"/><path d="M57.187 32.813a.937.937 0 0 0 .664-.276l.938-.938a.938.938 0 0 0 .174-1.08l-.937-1.876a.938.938 0 0 0-.839-.518h-3.75a.938.938 0 0 0-.662.275l-.938.937a.937.937 0 0 0-.176 1.082l.728 1.456-.358.716-1.338-2.675a12.188 12.188 0 0 0-10.09-6.712L30.061 22.5h-.124l-10.54.702a12.142 12.142 0 0 0-6.805 2.645 12.29 12.29 0 0 0-3.287 4.069L7.97 32.59l-.358-.716.733-1.456a.938.938 0 0 0-.177-1.082L7.23 28.4a.939.939 0 0 0-.668-.275h-3.75a.937.937 0 0 0-.838.518l-.937 1.875a.938.938 0 0 0 .174 1.076l.938.937a.937.937 0 0 0 .663.282h3.171l.446.893-2.16 1.075a.955.955 0 0 0-.362.319l-1.875 2.813a.943.943 0 0 0-.157.525v11.949a2.871 2.871 0 0 0 .937 2.113v1.818a2.844 2.844 0 0 0 2.813 2.87h3.75a2.821 2.821 0 0 0 2.719-2.157l2.812.282c.032 0 .063.004.094.004a.932.932 0 0 0 .37-.076l3.047-1.306.431.864a.937.937 0 0 0 .84.514h20.624a.937.937 0 0 0 .844-.519l.431-.863 3.048 1.306a.92.92 0 0 0 .365.075c.03 0 .062 0 .094-.004l2.8-.281a2.772 2.772 0 0 0 2.73 2.16h3.75a2.844 2.844 0 0 0 2.813-2.87V52.5a2.87 2.87 0 0 0 .938-2.113v-11.95a.943.943 0 0 0-.158-.52l-1.875-2.812a.954.954 0 0 0-.36-.32l-2.157-1.08.442-.892h3.17Zm-43.42-5.5a10.266 10.266 0 0 1 5.755-2.238l10.478-.7 10.477.698a10.318 10.318 0 0 1 8.54 5.68l1.028 2.06H9.955l1.03-2.063a10.238 10.238 0 0 1 2.781-3.437Zm35.531 7.375-5.727 5.728-6.202 1.772H33.97l-1.677-.844a.937.937 0 0 0-.42-.094h-3.75a.937.937 0 0 0-.418.094l-1.677.843H22.63l-6.187-1.769-5.434-5.73h38.288Zm-43.312-3.75H3.202l-.188-.188.375-.75h2.785l.188.188-.376.75ZM4.875 50.063a.938.938 0 0 0-.188.562v.946l-.51-.35a1.009 1.009 0 0 1-.427-.834V44.45l3.047 3.047-1.922 2.565Zm4.5 5.25h-3.75a.969.969 0 0 1-.938-.995v-.469l.188.127a.918.918 0 0 0 .656.399l4.626.463a.913.913 0 0 1-.782.474ZM38.807 50.7l-.739 1.723 1.789.767-.124.246H20.267l-.124-.246 1.789-.767-.739-1.723-6.34 2.719-8.29-.826v-1.657l2.19-2.921 10.792 1.66a.908.908 0 0 0 .142.011h20.625a.907.907 0 0 0 .142-.01l10.792-1.66 2.191 2.92v1.657l-8.29.828-6.34-2.721Zm16.318-.639-1.923-2.564 3.048-3.047v5.936a1.007 1.007 0 0 1-.428.834l-.51.35v-.946c0-.203-.065-.4-.187-.563Zm-.75 5.25h-3.75a.914.914 0 0 1-.782-.479l4.626-.458a.918.918 0 0 0 .656-.398l.187-.127v.469a.968.968 0 0 1-.937.993ZM56.25 38.72v3.078l-4.196 4.196-11.814 1.82H19.76L7.947 45.995 3.75 41.799v-3.08l1.58-2.37 3.17-1.586 6.756 7.125c.116.122.261.21.423.257l6.562 1.875a.94.94 0 0 0 .258.042h3.75a.938.938 0 0 0 .419-.093l1.677-.844h3.308l1.677.844c.13.063.274.095.419.093h3.75a.96.96 0 0 0 .258-.035l6.562-1.875a.942.942 0 0 0 .405-.24l7.025-7.022 2.924 1.462 1.576 2.367ZM53.826 30h2.782l.375.75-.187.188h-2.78l-.374-.75.184-.188Z" stroke="#F50E30" stroke-width=".6" stroke-linejoin="round" mask="url(#a)"/><path d="M29.063 45a.937.937 0 1 0 1.874 0 .937.937 0 0 0-1.875 0Z" fill="#F50E30"/></svg>