<svg viewBox="0 0 60 60" fill="none" xmlns="http://www.w3.org/2000/svg"><g clip-path="url(#a)" fill="#F50E30"><path d="M51.094 7.031h-4.12c-5.781 0-11.515-2.418-15.731-6.633a1.757 1.757 0 0 0-2.486 0c-4.216 4.215-9.95 6.633-15.732 6.633H8.906c-.97 0-1.758.787-1.758 1.758v21.094c0 7.036 2.207 12.98 6.745 18.17 3.803 4.35 8.598 7.379 12.45 9.812.957.604 1.86 1.174 2.682 1.723a1.756 1.756 0 0 0 1.95 0c.796-.53 1.683-1.09 2.621-1.681 7.668-4.833 19.256-12.137 19.256-28.024V8.789c0-.97-.787-1.758-1.758-1.758Zm-1.758 22.852c0 13.948-10.18 20.364-17.614 25.05-.596.375-1.171.737-1.722 1.091-.57-.367-1.164-.743-1.78-1.131-7.409-4.68-17.556-11.09-17.556-25.01V10.547h2.361c6.153 0 12.25-2.35 16.975-6.499 4.725 4.149 10.822 6.499 16.975 6.499h2.361v19.336Z"/><path d="M30 14.063c-8.723 0-15.82 7.096-15.82 15.82 0 8.723 7.097 15.82 15.82 15.82 8.723 0 15.82-7.097 15.82-15.82 0-8.724-7.096-15.82-15.82-15.82Zm0 28.124c-6.785 0-12.305-5.52-12.305-12.304 0-6.785 5.52-12.305 12.305-12.305s12.305 5.52 12.305 12.305S36.785 42.188 30 42.188Z"/><path d="m35.788 25.124-7.546 7.546-4.03-4.03a1.757 1.757 0 1 0-2.486 2.486l5.273 5.273a1.75 1.75 0 0 0 1.243.515c.45 0 .9-.172 1.243-.515l8.79-8.789a1.758 1.758 0 1 0-2.487-2.486Z"/></g><defs><clipPath id="a"><path fill="#fff" d="M0 0h60v60H0z"/></clipPath></defs></svg>